<svg width="64" height="64" viewBox="0 0 64 64" fill="none" xmlns="http://www.w3.org/2000/svg">
<g id="Frame">
<path id="Vector" fill-rule="evenodd" clip-rule="evenodd" d="M4 16C4 14.4087 4.63214 12.8826 5.75736 11.7574C6.88258 10.6321 8.4087 10 10 10H54C55.5913 10 57.1174 10.6321 58.2426 11.7574C59.3679 12.8826 60 14.4087 60 16V48C60 49.5913 59.3679 51.1174 58.2426 52.2426C57.1174 53.3679 55.5913 54 54 54H10C8.4087 54 6.88258 53.3679 5.75736 52.2426C4.63214 51.1174 4 49.5913 4 48V16ZM8 42.8267V48C8 49.104 8.896 50 10 50H54C54.5304 50 55.0391 49.7893 55.4142 49.4142C55.7893 49.0391 56 48.5304 56 48V42.8267L48.8267 35.656C48.0767 34.9069 47.06 34.4862 46 34.4862C44.94 34.4862 43.9233 34.9069 43.1733 35.656L40.8267 38L43.4133 40.5867C43.6098 40.7698 43.7674 40.9906 43.8768 41.2359C43.9861 41.4812 44.0448 41.7461 44.0496 42.0146C44.0543 42.2831 44.0049 42.5499 43.9043 42.7989C43.8037 43.048 43.654 43.2742 43.4641 43.4641C43.2742 43.654 43.048 43.8037 42.7989 43.9043C42.5499 44.0049 42.2831 44.0543 42.0146 44.0496C41.7461 44.0448 41.4812 43.9861 41.2359 43.8768C40.9906 43.7674 40.7698 43.6098 40.5867 43.4133L26.8267 29.656C26.0767 28.9069 25.06 28.4862 24 28.4862C22.94 28.4862 21.9233 28.9069 21.1733 29.656L8 42.8293V42.8267ZM35 22C35 21.2044 35.3161 20.4413 35.8787 19.8787C36.4413 19.3161 37.2044 19 38 19C38.7957 19 39.5587 19.3161 40.1213 19.8787C40.6839 20.4413 41 21.2044 41 22C41 22.7956 40.6839 23.5587 40.1213 24.1213C39.5587 24.6839 38.7957 25 38 25C37.2044 25 36.4413 24.6839 35.8787 24.1213C35.3161 23.5587 35 22.7956 35 22Z" fill="#6B7280"/>
</g>
</svg>
