<svg width="130" height="120" viewBox="0 0 130 120" fill="none" xmlns="http://www.w3.org/2000/svg">
<g id="Group 237589">
<path id="Vector" d="M127.256 97.7108C126.219 96.0596 124.863 94.6316 123.267 93.5105C121.672 92.3894 119.868 91.5977 117.963 91.1814C110.674 89.4862 104.353 84.9747 100.38 78.6328C96.407 72.2908 95.106 64.6342 96.761 57.3361C97.3973 54.5153 97.1859 51.5694 96.1534 48.8683C95.1209 46.1672 93.3134 43.8314 90.9579 42.1543C88.6021 40.4773 85.8034 39.5337 82.9131 39.4419C80.0229 39.3503 77.1702 40.1145 74.7129 41.6388C72.2556 43.1633 70.3037 45.3796 69.1019 48.0097C67.9003 50.6401 67.5025 53.5665 67.9587 56.422C68.4147 59.2774 69.7046 61.9345 71.6659 64.0594C73.627 66.1842 76.1725 67.6823 78.9824 68.3651C82.6175 69.185 86.055 70.7144 89.0979 72.8655C92.1408 75.0164 94.7292 77.747 96.7148 80.9002C98.7004 84.0536 100.044 87.5678 100.669 91.2414C101.294 94.915 101.187 98.6759 100.356 102.308C99.8637 104.65 99.9514 107.077 100.612 109.376C101.272 111.676 102.485 113.78 104.145 115.504C105.804 117.228 107.86 118.519 110.133 119.266C112.407 120.014 114.828 120.193 117.187 119.79C119.545 119.387 121.77 118.413 123.666 116.954C125.562 115.494 127.072 113.593 128.065 111.416C129.058 109.238 129.503 106.851 129.362 104.463C129.221 102.074 128.498 99.756 127.256 97.7108Z" fill="white"/>
<path id="Vector_2" d="M37.0422 81.4238C39.6091 82.8245 42.5357 83.4264 45.4469 83.1522C48.3582 82.878 51.121 81.7402 53.3811 79.8849C55.6413 78.0294 57.2955 75.5411 58.1314 72.7392C58.9675 69.9371 58.9472 66.9492 58.0732 64.1587C56.9654 60.6005 56.5708 56.8588 56.912 53.1478C57.2533 49.4368 58.3233 45.8297 60.0615 42.5333C61.7994 39.2369 64.171 36.3158 67.0401 33.9376C69.9092 31.5594 73.2195 29.7711 76.7812 28.6748C79.5435 27.8096 81.9881 26.1466 83.8074 23.8952C85.6268 21.6439 86.7396 18.9047 87.0057 16.0223C87.272 13.1398 86.6798 10.2431 85.3035 7.69665C83.9273 5.15007 81.8285 3.06746 79.2715 1.71098C76.7143 0.35449 73.8132 -0.215488 70.9331 0.0730957C68.0529 0.361499 65.3223 1.49535 63.0849 3.33215C60.8476 5.16877 59.2036 7.62622 58.3596 10.3951C57.5158 13.1639 57.5097 16.1206 58.3422 18.8928C60.5276 26.0499 59.7885 33.7815 56.2871 40.395C52.7854 47.0085 46.8066 51.9655 39.6588 54.181C36.8371 54.9994 34.326 56.6457 32.4505 58.9073C30.5751 61.1689 29.4217 63.9413 29.1397 66.8656C28.858 69.7901 29.4605 72.7318 30.8694 75.3098C32.2784 77.888 34.4288 79.9837 37.0422 81.3259V81.4238Z" fill="white"/>
<path id="Vector_3" d="M74.8004 79.0269C72.8495 79.0954 70.9321 79.5525 69.1599 80.3713C67.3878 81.1902 65.797 82.3542 64.4804 83.7957C59.3727 89.2588 52.3096 92.4775 44.8356 92.7479C37.3613 93.0183 30.084 90.3183 24.5948 85.2384C23.1765 83.9077 21.5079 82.8721 19.6859 82.192C17.864 81.5118 15.9249 81.2008 13.9816 81.2768C11.5895 81.3896 9.26127 82.0863 7.2004 83.3059C5.13935 84.5254 3.40839 86.2309 2.15828 88.2732C0.907988 90.3158 0.176826 92.6333 0.0282218 95.0233C-0.120203 97.4136 0.318424 99.8036 1.30618 101.985C2.29394 104.167 3.80047 106.073 5.69459 107.539C7.58871 109.004 9.81256 109.983 12.1723 110.392C14.532 110.8 16.9558 110.624 19.232 109.88C21.5083 109.136 23.5677 107.846 25.2306 106.123C27.7603 103.384 30.8053 101.171 34.1914 99.611C37.5777 98.0509 41.2383 97.174 44.9639 97.031C48.6894 96.888 52.4067 97.4811 55.9025 98.7769C59.3984 100.073 62.6043 102.045 65.3365 104.582C67.1152 106.189 69.2607 107.336 71.5852 107.922C73.9099 108.509 76.3425 108.516 78.6708 107.945C80.9991 107.374 83.1516 106.241 84.9406 104.645C86.7296 103.049 88.1003 101.039 88.933 98.7907C89.7655 96.5426 90.0344 94.1249 89.7166 91.7486C89.3985 89.3726 88.5031 87.1106 87.1085 85.1605C85.7141 83.2105 83.8633 81.6319 81.7176 80.5625C79.572 79.4934 77.197 78.966 74.8004 79.0269Z" fill="white"/>
</g>
</svg>
